<svg xmlns="http://www.w3.org/2000/svg" width="20.377" height="18.809" viewBox="0 0 20.377 18.809"><path d="M12.188,3A2.873,2.873,0,0,0,9.053,6.135a3.121,3.121,0,0,0,.276,1.157.612.612,0,0,0-.248.626c.085.67.377.84.562.854a2.727,2.727,0,0,0,.978,1.541v1.045c-.428,1.283-3.3.819-4.333,2.613h-3.5a.784.784,0,1,0,0,1.568H21.593a.784.784,0,1,0,0-1.568h-3.5c-1.03-1.793-3.906-1.328-4.333-2.611V10.315a2.729,2.729,0,0,0,.978-1.543c.185-.014.476-.184.562-.854a.612.612,0,0,0-.248-.626,2.777,2.777,0,0,0,.276-1.157c0-1.269-.5-2.351-1.567-2.351A1.662,1.662,0,0,0,12.188,3ZM3.567,17.107l.94,4.7H19.869l.94-4.7Z" transform="translate(-2 -3)" fill="#202a3b"/></svg>