<svg xmlns="http://www.w3.org/2000/svg" width="19.07" height="17.809" viewBox="0 0 19.07 17.809"><path d="M18.087,1.719l.689.993L16.531,4.084l-3.386-.678a.734.734,0,0,0-.415.039L9.334,4.8l-3.4-1.358a.734.734,0,0,0-.6.024L2.405,4.936a.734.734,0,1,0,.656,1.312L5.7,4.929,9.062,6.273a.734.734,0,0,0,.544,0l3.465-1.385,3.454.69a.734.734,0,0,0,.526-.093l2.563-1.567.839,1.209.52-2.887ZM3.467,7.793a1.467,1.467,0,0,0-.284.029l-.023.006A1.467,1.467,0,0,0,2,9.26v8.8a1.467,1.467,0,0,0,.029.284c0,.008,0,.015.006.023a1.467,1.467,0,0,0,1.433,1.16H19.6a1.467,1.467,0,0,0,.284-.029l.023-.006a1.467,1.467,0,0,0,1.16-1.433V9.26a1.467,1.467,0,0,0-.029-.284c0-.008,0-.015-.006-.023A1.467,1.467,0,0,0,19.6,7.793ZM4.934,9.26h13.2A1.467,1.467,0,0,0,19.6,10.726v5.868a1.467,1.467,0,0,0-1.467,1.467H4.934a1.467,1.467,0,0,0-1.467-1.467V10.726A1.467,1.467,0,0,0,4.934,9.26Zm6.6,1.467a3.134,3.134,0,0,0-2.934,3.3,3.443,3.443,0,0,0,1.11,2.567h3.647a3.443,3.443,0,0,0,1.11-2.567A3.134,3.134,0,0,0,11.535,10.726Zm-5.868,2.2a.733.733,0,1,0,.733.733A.733.733,0,0,0,5.667,12.927Zm11.735,0a.733.733,0,1,0,.733.733A.733.733,0,0,0,17.4,12.927Z" transform="translate(-2 -1.719)" fill="#202a3b"/></svg>