<svg xmlns="http://www.w3.org/2000/svg" width="22.111" height="17.688" viewBox="0 0 22.111 17.688"><path d="M4.866,3a1.718,1.718,0,0,0-1.18.737C-.173,3.737,1.956,9.9.822,10.8c0,0,.695.859,2.863.859V12.4C3.086,13.96,0,13.383,0,16.267H5.913c.519-.314,2.194-1.185,2.194-1.185A6.365,6.365,0,0,1,6.92,13.356,1.889,1.889,0,0,1,5.9,12.4v-.744a5.157,5.157,0,0,0,.7-.065,5.429,5.429,0,0,1-.606-2.308A4.609,4.609,0,0,1,7.873,5.434,2.857,2.857,0,0,0,4.866,3ZM16.952,3a2.862,2.862,0,0,0-2.888,2.6A4.094,4.094,0,0,1,16.03,9.351a4.663,4.663,0,0,1-.263,1.467,2.707,2.707,0,0,1,.079.669c0,1.82-1.843,3.636-1.843,3.636.4.175,1.681.825,2.2,1.143h5.9c0-3.869-3.142-2.764-3.685-4.422V10.739a2.838,2.838,0,0,0,.9-1.632,1.053,1.053,0,0,0,.573-.9c0-.419-.133-.6-.249-.664A3.319,3.319,0,0,0,19.9,6.317c0-1.342-.363-2.58-1.474-2.58A1.513,1.513,0,0,0,16.952,3Zm-5.9,2.948A3.292,3.292,0,0,0,7.462,9.282a3.049,3.049,0,0,0,.507,1.609s-.23.113-.23.6a1.148,1.148,0,0,0,.6,1.163c.084.743,1.239,1.831,1.239,1.831v1.242c-.621,1.862-4.422.635-4.422,4.965H16.952c0-4.345-3.8-3.1-4.422-4.965V14.482s1.155-1.088,1.239-1.831a1.51,1.51,0,0,0,.6-1.163c0-.517-.23-.6-.23-.6a3.881,3.881,0,0,0,.415-1.54c0-1.507-.756-2.666-2.027-2.666A1.956,1.956,0,0,0,11.055,5.948Z" transform="translate(0 -3)" fill="#202a3b"/></svg>