<svg xmlns="http://www.w3.org/2000/svg" width="17.487" height="13.008" viewBox="0 0 17.487 13.008"><path d="M5.122-19.887A3.535,3.535,0,0,1,2.287-21.15a4.941,4.941,0,0,1-1.072-3.312,8.683,8.683,0,0,1,1.572-4.979A10.027,10.027,0,0,1,6.694-32.9l.286.572A7.51,7.51,0,0,0,5.217-30.37a8.305,8.305,0,0,0-1.1,2.954l1,.238a4.852,4.852,0,0,1,2.6,1.406,3.527,3.527,0,0,1,.929,2.454A3.228,3.228,0,0,1,7.624-20.84,3.537,3.537,0,0,1,5.122-19.887Zm10.054,0a3.535,3.535,0,0,1-2.835-1.263,4.941,4.941,0,0,1-1.072-3.312,8.683,8.683,0,0,1,1.572-4.979A10.027,10.027,0,0,1,16.748-32.9l.286.572a7.51,7.51,0,0,0-1.763,1.954,8.305,8.305,0,0,0-1.1,2.954l1,.238a4.852,4.852,0,0,1,2.6,1.406,3.527,3.527,0,0,1,.929,2.454,3.228,3.228,0,0,1-1.024,2.478A3.537,3.537,0,0,1,15.176-19.887Z" transform="translate(-1.215 32.895)" fill="#4eaf4e"/></svg>