<svg height="12.898" viewBox="0 0 12.82 12.898" width="12.82" xmlns="http://www.w3.org/2000/svg"><path d="m13.932 2h-10.924a.935.935 0 0 0 -.948.922v11.053a.935.935 0 0 0 .948.922h10.924a.935.935 0 0 0 .948-.922v-11.053a.935.935 0 0 0 -.947-.922zm-7.983 10.8h-1.935v-5.8h1.935zm-.968-6.621a1.006 1.006 0 1 1 0-2.012 1.012 1.012 0 1 1 0 2.012zm7.945 6.621h-1.934v-3.12c0-.78-.277-1.29-.98-1.29a1.064 1.064 0 0 0 -.993.7 1.29 1.29 0 0 0 -.064.471v3.224h-1.936v-5.8h1.935v.815a1.935 1.935 0 0 1 1.746-.963c1.29 0 2.225.832 2.225 2.618z" fill="#fff" transform="translate(-2.06 -2)"/></svg>