<svg xmlns="http://www.w3.org/2000/svg" width="12.579" height="13.496" viewBox="0 0 12.579 13.496"><path d="M12.348,9.585c-.815-.7-1.644-1.121-2.448-.424l-.481.42c-.352.307-1.006,1.734-3.534-1.177s-1.025-3.358-.671-3.66L5.7,4.322c.8-.7.5-1.576-.08-2.481l-.348-.547C4.689.393,4.055-.2,3.253.5L2.819.876a4.064,4.064,0,0,0-1.588,2.7c-.29,1.915.625,4.111,2.718,6.518s4.139,3.619,6.077,3.6a4.093,4.093,0,0,0,2.891-1.2l.434-.381c.8-.7.3-1.405-.512-2.1Z" transform="translate(-1.178 -0.191)" fill="#fff"/></svg>