<svg enable-background="new 0 0 14 14" viewBox="0 0 14 14" xmlns="http://www.w3.org/2000/svg"><path clip-rule="evenodd" d="m7 0c-3.9 0-7 3.1-7 7s3.1 7 7 7 7-3.1 7-7-3.1-7-7-7zm-5.7 7.9c.8.4 1.7.6 2.6.8.1 1.3.4 2.5 1 3.7-1.9-.8-3.3-2.5-3.6-4.5zm2.5-.9v.3c-.3-.1-.7-.2-1-.3-.6 0-1.1-.3-1.5-.7.3-2.1 1.6-3.8 3.6-4.6-.8 1.6-1.1 3.5-1.1 5.3zm3.2 5.7c-.7 0-1.5-1.6-1.8-3.9.6.1 1.2.1 1.8.1s1.2 0 1.8-.1c-.3 2.3-1.1 3.9-1.8 3.9zm1.9-5.2c-.6.1-1.3.1-1.9.1s-1.3 0-1.9-.1c0-.2 0-.4 0-.5 0-3.2 1-5.7 1.9-5.7s1.9 2.5 1.9 5.7zm3.8-1.2c-.7.5-1.6.9-2.5 1 0-.1 0-.2 0-.3.1-1.8-.3-3.6-1.1-5.3 2 .8 3.3 2.5 3.6 4.6zm0 1.5c-.3 2-1.6 3.8-3.5 4.5.6-1.2.9-2.4 1-3.7.8-.2 1.7-.4 2.5-.8z" fill="#4eaf4e" fill-rule="evenodd"/></svg>