<?xml version="1.0" encoding="utf-8"?>
<!-- Generator: Adobe Illustrator 24.0.3, SVG Export Plug-In . SVG Version: 6.00 Build 0)  -->
<svg version="1.1" id="Слой_1" xmlns="http://www.w3.org/2000/svg" xmlns:xlink="http://www.w3.org/1999/xlink" x="0px" y="0px"
	 viewBox="0 0 51.4 55.9" style="enable-background:new 0 0 51.4 55.9;" xml:space="preserve">
<style type="text/css">
	.st0{fill:#4EAF4E;}
</style>
<g>
	<path class="st0" d="M29.1,25.7C29.1,25.7,29.1,25.7,29.1,25.7h-2.2c-0.6,0-1.1,0.5-1.1,1.1c0,0,0,0,0,0v2.2c0,0.6,0.5,1.1,1.1,1.1
		c0,0,0,0,0,0h2.2c0.6,0,1.1-0.5,1.1-1.1c0,0,0,0,0,0v-2.2C30.2,26.2,29.7,25.7,29.1,25.7z"/>
	<path class="st0" d="M35.8,32.4C35.8,32.4,35.8,32.4,35.8,32.4h-2.2c-0.6,0-1.1,0.5-1.1,1.1c0,0,0,0,0,0v2.2c0,0.6,0.5,1.1,1.1,1.1
		c0,0,0,0,0,0h2.2c0.6,0,1.1-0.5,1.1-1.1c0,0,0,0,0,0v-2.2C36.9,32.9,36.4,32.4,35.8,32.4z"/>
	<path class="st0" d="M29.1,19C29.1,19,29.1,19,29.1,19h-2.2c-0.6,0-1.1,0.5-1.1,1.1c0,0,0,0,0,0v2.2c0,0.6,0.5,1.1,1.1,1.1
		c0,0,0,0,0,0h2.2c0.6,0,1.1-0.5,1.1-1.1c0,0,0,0,0,0v-2.2C30.2,19.5,29.7,19,29.1,19z"/>
	<path class="st0" d="M49,4.2C47.7,1,46,0,44.7,0H22.4C20.5,0,19,1.5,19,3.4v39.1c0,1.8,1.5,3.3,3.4,3.4h3.4v1.1
		c0,3.7-3,6.7-6.7,6.7c0,0,0,0,0,0h-1.1c-3.7,0-6.7-3-6.7-6.7c0,0,0,0,0,0v-1.1h3.4c1.8,0,3.3-1.5,3.4-3.4V32.4c0-1.5-0.2-3-0.6-4.4
		c-0.4-1.5-0.6-3-0.5-4.6c0-1.9,0.2-3.9,0.5-5.8c0.4-1.8,0.6-3.6,0.6-5.4V3.4c0-1.8-1.5-3.3-3.4-3.4H3.4C1.5,0,0,1.5,0,3.4v8.9
		c0,1.8,0.2,3.6,0.6,5.4c0.4,1.9,0.5,3.9,0.5,5.8C1.2,25,1,26.6,0.6,28C0.2,29.5,0,30.9,0,32.4v10.1c0,1.8,1.5,3.3,3.4,3.4h5.6v1.1
		c0,4.9,4,8.9,8.9,8.9H19c4.9,0,8.9-4,8.9-8.9v-1.1h16.8c0.9,0,1.7-0.5,2.2-1.2c0.9-1.1,1.6-2.3,2.1-3.6c1.3-3.4,2.4-9.1,2.4-18.7
		C51.4,12.8,50.3,7.3,49,4.2z M9.8,43.6H3.4c-0.6,0-1.1-0.5-1.1-1.1c0,0,0,0,0,0V32.4c-0.1-1.3,0.1-2.5,0.5-3.7
		c0.5-1.7,0.7-3.4,0.6-5.2c0-2.1-0.2-4.2-0.6-6.2c-0.3-1.6-0.5-3.3-0.5-5V3.4c0-0.6,0.5-1.1,1.1-1.1c0,0,0,0,0,0h11.2
		c0.6,0,1.1,0.5,1.1,1.1c0,0,0,0,0,0v8.9c0,1.7-0.2,3.3-0.5,5c-0.4,2-0.6,4.1-0.6,6.2c-0.1,1.8,0.1,3.5,0.6,5.2
		c0.4,1.2,0.6,2.5,0.5,3.7v10.1c0,0.6-0.5,1.1-1.1,1.1c0,0,0,0,0,0h-4.3C10.1,43.6,10,43.6,9.8,43.6z M46.9,40.2
		c-0.4,1-0.9,2-1.6,2.9c-0.2,0.2-0.4,0.4-0.7,0.5H22.4c-0.6,0-1.1-0.5-1.1-1.1c0,0,0,0,0,0V3.4c0-0.6,0.5-1.1,1.1-1.1c0,0,0,0,0,0
		h22.4c-0.1,0,1.1,0.1,2.2,2.8c1.1,2.7,2.2,7.9,2.2,17.3C49.2,31.8,48.1,37.2,46.9,40.2z"/>
	<path class="st0" d="M42.5,5.6H26.6c-0.5,0.1-0.9,0.6-0.9,1.1v8.9c0,0.6,0.5,1.1,1.1,1.1h15.6c0.6,0,1.1-0.5,1.1-1.1V6.7
		C43.6,6.1,43.1,5.6,42.5,5.6z M41.4,14.5H27.9V7.8h13.4V14.5z"/>
	<path class="st0" d="M29.1,32.4C29.1,32.4,29.1,32.4,29.1,32.4h-2.2c-0.6,0-1.1,0.5-1.1,1.1c0,0,0,0,0,0v2.2c0,0.6,0.5,1.1,1.1,1.1
		c0,0,0,0,0,0h2.2c0.6,0,1.1-0.5,1.1-1.1c0,0,0,0,0,0v-2.2C30.2,32.9,29.7,32.4,29.1,32.4z"/>
	<path class="st0" d="M42.5,25.7C42.5,25.7,42.5,25.7,42.5,25.7h-2.2c-0.6,0-1.1,0.5-1.1,1.1c0,0,0,0,0,0v2.2c0,0.6,0.5,1.1,1.1,1.1
		c0,0,0,0,0,0h2.2c0.6,0,1.1-0.5,1.1-1.1c0,0,0,0,0,0v-2.2C43.6,26.2,43.1,25.7,42.5,25.7z"/>
	<path class="st0" d="M42.5,19C42.5,19,42.5,19,42.5,19h-2.2c-0.6,0-1.1,0.5-1.1,1.1c0,0,0,0,0,0v2.2c0,0.6,0.5,1.1,1.1,1.1
		c0,0,0,0,0,0h2.2c0.6,0,1.1-0.5,1.1-1.1c0,0,0,0,0,0v-2.2C43.6,19.5,43.1,19,42.5,19z"/>
	<path class="st0" d="M35.8,19C35.8,19,35.8,19,35.8,19h-2.2c-0.6,0-1.1,0.5-1.1,1.1c0,0,0,0,0,0v2.2c0,0.6,0.5,1.1,1.1,1.1
		c0,0,0,0,0,0h2.2c0.6,0,1.1-0.5,1.1-1.1c0,0,0,0,0,0v-2.2C36.9,19.5,36.4,19,35.8,19z"/>
	<path class="st0" d="M35.8,25.7C35.8,25.7,35.8,25.7,35.8,25.7h-2.2c-0.6,0-1.1,0.5-1.1,1.1c0,0,0,0,0,0v2.2c0,0.6,0.5,1.1,1.1,1.1
		c0,0,0,0,0,0h2.2c0.6,0,1.1-0.5,1.1-1.1c0,0,0,0,0,0v-2.2C36.9,26.2,36.4,25.7,35.8,25.7z"/>
	<path class="st0" d="M42.5,32.4C42.5,32.4,42.5,32.4,42.5,32.4h-2.2c-0.6,0-1.1,0.5-1.1,1.1c0,0,0,0,0,0v2.2c0,0.6,0.5,1.1,1.1,1.1
		c0,0,0,0,0,0h2.2c0.6,0,1.1-0.5,1.1-1.1c0,0,0,0,0,0v-2.2C43.6,32.9,43.1,32.4,42.5,32.4z"/>
</g>
</svg>
