<?xml version="1.0" encoding="utf-8"?>
<!-- Generator: Adobe Illustrator 24.0.3, SVG Export Plug-In . SVG Version: 6.00 Build 0)  -->
<svg version="1.1" id="Слой_1" xmlns="http://www.w3.org/2000/svg" xmlns:xlink="http://www.w3.org/1999/xlink" x="0px" y="0px"
	 viewBox="0 0 58 58" style="enable-background:new 0 0 58 58;" xml:space="preserve">
<style type="text/css">
	.st0{fill:#4EAF4E;}
</style>
<g>
	<polygon class="st0" points="24.2,6.5 24.2,6.5 24.2,6.5 	"/>
	<path class="st0" d="M24.2,47.4c-0.1,0-0.3,0-0.4,0h0c-0.4,0.1-0.7,0.3-0.8,0.7L22.5,50c-0.2,0.5,0.2,1.1,0.7,1.2
		c0.5,0.2,1.1-0.1,1.2-0.7c0,0,0,0,0-0.1l0.5-1.9C25.1,48.1,24.8,47.5,24.2,47.4z"/>
	<path class="st0" d="M25,7.2c-0.1-0.4-0.4-0.7-0.8-0.8c-0.1,0-0.3,0-0.4,0c-1.1,0.2-2.1,0.6-3.1,1c-0.5,0.2-0.8,0.8-0.6,1.3
		c0.2,0.4,0.5,0.6,0.9,0.6c0.1,0,0.2,0,0.4-0.1c0.9-0.4,1.9-0.7,2.9-0.9C24.8,8.3,25.1,7.8,25,7.2z"/>
	<path class="st0" d="M17.5,11.3c0.5-0.3,0.6-0.9,0.3-1.4c-0.2-0.3-0.6-0.5-1-0.4v0c-0.1,0-0.3,0.1-0.4,0.1
		C5.8,16.6,2.8,30.8,9.7,41.5c0.8,1.2,1.6,2.2,2.5,3.2c0.4,0.4,1,0.4,1.4,0s0.4-1,0-1.4c-8-8.4-7.6-21.7,0.9-29.7
		C15.5,12.8,16.5,12,17.5,11.3z"/>
	<path class="st0" d="M19.8,45.5C19.8,45.5,19.8,45.5,19.8,45.5c-0.1-0.1-0.2-0.1-0.4-0.1c-0.4,0-0.8,0.1-1,0.5v0l-1,1.7
		c-0.3,0.5-0.1,1.1,0.4,1.3c0.5,0.2,1,0.1,1.3-0.3l1-1.7C20.4,46.4,20.2,45.8,19.8,45.5z"/>
	<path class="st0" d="M35,48.1c-0.1-0.4-0.5-0.7-0.9-0.7h0c-0.5-0.1-1,0.3-1.1,0.9c0,0.1,0,0.2,0,0.3l0.5,1.9
		c0.1,0.5,0.7,0.9,1.2,0.7c0.5-0.1,0.9-0.7,0.7-1.2L35,48.1z"/>
	<path class="st0" d="M29,0C13,0,0,13,0,29s13,29,29,29s29-13,29-29S45,0,29,0z M48.8,47.4C48.7,47.4,48.7,47.3,48.8,47.4l-9.1-9.1
		c-0.4-0.4-1-0.4-1.4,0c-0.4,0.4-0.4,1,0,1.4l9,9c0,0,0.1,0,0.1,0.1c-10.9,10.2-28,9.6-38.2-1.4c-10.2-10.9-9.6-28,1.4-38.2
		C15.3,4.8,21.5,2.3,28,2v8c0,0.6,0.4,1,1,1s1-0.4,1-1V2c14.1,0.5,25.5,11.9,26,26H39c-0.6,0-1,0.4-1,1s0.4,1,1,1h17
		C55.7,36.5,53.2,42.6,48.8,47.4z"/>
	<path class="st0" d="M37.8,46.6c0,0.1,0.1,0.2,0.1,0.3l1,1.7c0.2,0.5,0.8,0.7,1.3,0.5s0.7-0.8,0.5-1.3c0,0,0,0,0-0.1
		c0,0,0-0.1,0-0.1l-1-1.7c-0.2-0.3-0.6-0.5-1-0.5v0C38.1,45.5,37.7,46,37.8,46.6z"/>
	<path class="st0" d="M29,48c-0.6,0-1,0.4-1,1v2c0,0.6,0.4,1,1,1s1-0.4,1-1v-2C30,48.4,29.6,48,29,48z"/>
	<path class="st0" d="M27,20h4c1.7,0,3,1.3,3,3c0,0.6,0.4,1,1,1s1-0.4,1-1c0-2.8-2.2-5-5-5h-1v-3c0-0.6-0.4-1-1-1s-1,0.4-1,1v3h-1
		c-2.8,0-5,2.2-5,5v2c0,2.8,2.2,5,5,5h4c1.7,0,3,1.3,3,3v2c0,1.7-1.3,3-3,3h-1v-6c0-0.6-0.4-1-1-1s-1,0.4-1,1v6h-1c-1.7,0-3-1.3-3-3
		c0-0.6-0.4-1-1-1s-1,0.4-1,1c0,2.8,2.2,5,5,5h1v3c0,0.6,0.4,1,1,1s1-0.4,1-1v-3h1c2.8,0,5-2.2,5-5v-2c0-2.8-2.2-5-5-5h-1v-6
		c0-0.6-0.4-1-1-1s-1,0.4-1,1v6h-1c-1.7,0-3-1.3-3-3v-2C24,21.3,25.3,20,27,20z"/>
</g>
</svg>
