<?xml version="1.0" encoding="utf-8"?>
<!-- Generator: Adobe Illustrator 24.0.3, SVG Export Plug-In . SVG Version: 6.00 Build 0)  -->
<svg version="1.1" id="Слой_1" xmlns="http://www.w3.org/2000/svg" xmlns:xlink="http://www.w3.org/1999/xlink" x="0px" y="0px"
	 viewBox="0 0 55.9 48" style="enable-background:new 0 0 55.9 48;" xml:space="preserve">
<style type="text/css">
	.st0{fill:#4EAF4E;}
</style>
<g>
	<path class="st0" d="M2.2,38v-2.8l16.4-13l4.1,3.6c1.4,1.3,3.3,2,5.2,2.1c1.9,0,3.8-0.8,5.2-2.1l4.1-3.6l5.5,4.3l1.7-1.5L39,20.8
		L53.6,8v13.6c0.8,0.3,1.6,0.8,2.2,1.4V0H0v40.2h30.8l0.6-2.2H2.2z M2.2,2.2h51.4V5c-0.5,0.4-20.3,17.7-22,19.2
		c-1,0.9-2.3,1.5-3.7,1.5c-1.4,0-2.7-0.6-3.7-1.5C22.6,22.8,2.7,5.4,2.2,5V2.2z M2.2,8l14.7,12.8L2.2,32.4V8z"/>
	<path class="st0" d="M54.5,24.8c-0.8-0.9-2-1.4-3.2-1.3c-1.1,0-2.2,0.5-3,1.2l-0.2,0.1l-0.1,0.1l-0.3,0.3L46.8,26l-0.2,0.2
		L33.5,39.5c-0.1,0.1-0.2,0.3-0.3,0.4l-1.9,6.7c-0.2,0.5,0.1,1.1,0.6,1.3c0.1,0,0.1,0,0.2,0.1c0.2,0.1,0.4,0.1,0.6,0l6.7-1.8
		c0.2,0,0.3-0.1,0.6-0.3l14.3-14.3l0.3-0.2C56.3,29.5,56.3,26.6,54.5,24.8z M34,45.5l0.9-3.2l2.3,2.3L34,45.5z M39.3,43.4L36,40.1
		l12.2-12.3l3.4,3.4L39.3,43.4z M53.1,29.5l-3.2-3.2c0.4-0.3,0.9-0.5,1.5-0.6c0.6,0,1.2,0.2,1.7,0.7C53.8,27.2,53.9,28.6,53.1,29.5z
		"/>
</g>
</svg>
