<?xml version="1.0" encoding="utf-8"?>
<!-- Generator: Adobe Illustrator 24.0.3, SVG Export Plug-In . SVG Version: 6.00 Build 0)  -->
<svg version="1.1" id="Слой_1" xmlns="http://www.w3.org/2000/svg" xmlns:xlink="http://www.w3.org/1999/xlink" x="0px" y="0px"
	 viewBox="0 0 56 56" style="enable-background:new 0 0 56 56;" xml:space="preserve">
<style type="text/css">
	.st0{fill:#4EAF4E;}
</style>
<g>
	<path class="st0" d="M21,46h-2c-0.6,0-1,0.4-1,1s0.4,1,1,1h2c0.6,0,1-0.4,1-1S21.6,46,21,46z"/>
	<path class="st0" d="M19,25h2c0.6,0,1-0.4,1-1s-0.4-1-1-1h-2c-0.6,0-1,0.4-1,1S18.4,25,19,25z"/>
	<path class="st0" d="M19,10h2c0.6,0,1-0.4,1-1s-0.4-1-1-1h-2c-0.6,0-1,0.4-1,1S18.4,10,19,10z"/>
	<path class="st0" d="M19,15h2c0.6,0,1-0.4,1-1s-0.4-1-1-1h-2c-0.6,0-1,0.4-1,1S18.4,15,19,15z"/>
	<path class="st0" d="M19,20h2c0.6,0,1-0.4,1-1s-0.4-1-1-1h-2c-0.6,0-1,0.4-1,1S18.4,20,19,20z"/>
	<path class="st0" d="M21,41h-2c-0.6,0-1,0.4-1,1s0.4,1,1,1h2c0.6,0,1-0.4,1-1S21.6,41,21,41z"/>
	<path class="st0" d="M54,22h-8c-1.1,0-2,0.9-2,2v3H26V7h5v3c0,1.1,0.9,2,2,2h8c1.1,0,2-0.9,2-2V2c0-1.1-0.9-2-2-2h-8
		c-1.1,0-2,0.9-2,2v3h-5c-1.1,0-2,0.9-2,2v20H10v-5c0-1.1-0.9-2-2-2H2c-1.1,0-2,0.9-2,2v12c0,1.1,0.9,2,2,2h6c1.1,0,2-0.9,2-2v-5h14
		v20c0,1.1,0.9,2,2,2h5v3c0,1.1,0.9,2,2,2h8c1.1,0,2-0.9,2-2v-8c0-1.1-0.9-2-2-2h-8c-1.1,0-2,0.9-2,2v3h-5V29h18v3c0,1.1,0.9,2,2,2
		h8c1.1,0,2-0.9,2-2v-8C56,22.9,55.1,22,54,22z M33,5V2h8v8h-8V5z M8,34H2V22h6V34z M33,51v-5h8v8h-8V51z M54,32h-8v-5v-3h8V32z"/>
	<path class="st0" d="M21,31h-2c-0.6,0-1,0.4-1,1s0.4,1,1,1h2c0.6,0,1-0.4,1-1S21.6,31,21,31z"/>
	<path class="st0" d="M21,36h-2c-0.6,0-1,0.4-1,1s0.4,1,1,1h2c0.6,0,1-0.4,1-1S21.6,36,21,36z"/>
</g>
</svg>
