<?xml version="1.0" encoding="utf-8"?>
<!-- Generator: Adobe Illustrator 24.0.3, SVG Export Plug-In . SVG Version: 6.00 Build 0)  -->
<svg version="1.1" id="Слой_1" xmlns="http://www.w3.org/2000/svg" xmlns:xlink="http://www.w3.org/1999/xlink" x="0px" y="0px"
	 viewBox="0 0 64 64" style="enable-background:new 0 0 64 64;" xml:space="preserve">
<style type="text/css">
	.st0{fill:#4EAF4E;}
</style>
<g>
	<circle class="st0" cx="32" cy="32" r="2"/>
	<path class="st0" d="M14.6,39.7c-0.2-0.4-0.5-0.6-0.9-0.6c-0.1,0-0.3,0-0.4,0.1L11.5,40c-0.5,0.2-0.8,0.8-0.6,1.3
		c0.2,0.5,0.8,0.8,1.3,0.6c0,0,0,0,0.1,0l1.8-0.8C14.6,40.8,14.9,40.2,14.6,39.7z"/>
	<path class="st0" d="M47.5,16.3c-1.3-1.3-2.7-2.4-4.3-3.3c-0.1-0.1-0.2-0.1-0.4-0.1l0,0c-0.5-0.1-1.1,0.3-1.1,0.9
		c-0.1,0.4,0.1,0.8,0.5,1c1.4,0.8,2.7,1.8,3.9,3c0.4,0.4,1,0.4,1.4,0.1C47.9,17.5,47.9,16.8,47.5,16.3
		C47.5,16.4,47.5,16.4,47.5,16.3z"/>
	<path class="st0" d="M63,31h-2C60.4,15.8,48.2,3.6,33,3V1c0-0.6-0.4-1-1-1s-1,0.4-1,1v2C15.8,3.6,3.6,15.8,3,31H1c-0.6,0-1,0.4-1,1
		s0.4,1,1,1h2c0.5,15.2,12.8,27.4,28,28v2c0,0.6,0.4,1,1,1s1-0.4,1-1v-2c15.2-0.5,27.4-12.8,28-28h2c0.6,0,1-0.4,1-1S63.6,31,63,31z
		 M31,5v5c-11.4,0.5-20.4,9.6-21,21H5C5.6,16.9,16.9,5.6,31,5z M31,12v6c-6.9,0.5-12.4,6-12.9,13h-6C12.6,20.8,20.7,12.6,31,12
		L31,12z M31,52c-1.2-0.1-2.3-0.2-3.4-0.5c-0.5-0.1-1.1,0.3-1.2,0.8c-0.1,0.5,0.2,1,0.7,1.1c1.3,0.3,2.6,0.5,3.9,0.5v5
		C16.9,58.4,5.6,47.1,5,33h5c0.1,1.3,0.2,2.6,0.5,3.9c0.1,0.5,0.5,0.8,1,0.8c0.1,0,0.1,0,0.2,0c0.5-0.1,0.9-0.7,0.8-1.2c0,0,0,0,0,0
		c-0.3-1.1-0.4-2.3-0.5-3.4h6c0.5,6.9,6,12.4,13,12.9V52z M32,37c-0.6,0-1,0.4-1,1v5.9c-5.8-0.5-10.5-5.1-10.9-10.9H26
		c0.6,0,1-0.4,1-1s-0.4-1-1-1h-5.9c0.5-5.8,5.1-10.5,10.9-10.9V26c0,0.6,0.4,1,1,1s1-0.4,1-1v-5.9c5.8,0.5,10.5,5.1,10.9,10.9H38
		c-0.6,0-1,0.4-1,1s0.4,1,1,1h5.9c-0.5,5.8-5.1,10.5-10.9,10.9V38C33,37.4,32.6,37,32,37z M45.9,33h6c-0.5,10.3-8.7,18.4-19,19v-6
		C39.9,45.4,45.4,39.9,45.9,33z M33,59v-5c11.4-0.5,20.4-9.6,21-21h5C58.4,47.1,47.1,58.4,33,59z M54,31c-0.2-3.7-1.2-7.2-3.1-10.4
		c-0.3-0.5-0.9-0.6-1.4-0.3c-0.5,0.3-0.6,0.9-0.3,1.3c1.7,2.8,2.7,6,2.8,9.3h-6c-0.5-6.9-6-12.4-12.9-12.9v-6
		c1.6,0.1,3.1,0.3,4.6,0.8c0.5,0.2,1.1-0.1,1.2-0.7s-0.1-1.1-0.7-1.2c-1.7-0.5-3.4-0.8-5.2-0.8V5c14.1,0.5,25.4,11.9,26,26H54z"/>
	<path class="st0" d="M16.4,43.3L16.4,43.3c-0.3,0-0.5,0-0.7,0.2l-1.6,1.2c-0.4,0.3-0.5,1-0.2,1.4c0.3,0.4,1,0.5,1.4,0.2
		c0,0,0,0,0.1,0l1.6-1.2c0.4-0.3,0.5-1,0.2-1.4C16.9,43.5,16.6,43.4,16.4,43.3z"/>
	<path class="st0" d="M22.6,53c0.5,0.2,1.1,0,1.3-0.5c0,0,0,0,0-0.1l0.8-1.8c0.2-0.5,0-1.1-0.5-1.3c-0.1-0.1-0.3-0.1-0.4-0.1l0,0
		c-0.4,0-0.8,0.2-0.9,0.6l-0.8,1.8C21.9,52.2,22.1,52.8,22.6,53z"/>
	<path class="st0" d="M19.6,46.8L19.6,46.8c-0.3,0-0.5,0.2-0.7,0.4l-1.2,1.6c-0.3,0.4-0.3,1.1,0.2,1.4c0.2,0.1,0.4,0.2,0.6,0.2
		c0.3,0,0.6-0.1,0.8-0.4l1.2-1.6c0.3-0.4,0.3-1.1-0.2-1.4C20.1,46.8,19.8,46.7,19.6,46.8z"/>
</g>
</svg>
