<?xml version="1.0" encoding="utf-8"?>
<!-- Generator: Adobe Illustrator 24.0.3, SVG Export Plug-In . SVG Version: 6.00 Build 0)  -->
<svg version="1.1" id="Слой_1" xmlns="http://www.w3.org/2000/svg" xmlns:xlink="http://www.w3.org/1999/xlink" x="0px" y="0px"
	 viewBox="0 0 56 48" style="enable-background:new 0 0 56 48;" xml:space="preserve">
<style type="text/css">
	.st0{fill:#4EAF4E;}
</style>
<g>
	<path class="st0" d="M26,4c-0.6,0-1,0.4-1,1v2c0,0.6,0.4,1,1,1s1-0.4,1-1V5C27,4.4,26.6,4,26,4z"/>
	<path class="st0" d="M21,4c-0.6,0-1,0.4-1,1v2c0,0.6,0.4,1,1,1s1-0.4,1-1V5C22,4.4,21.6,4,21,4z"/>
	<path class="st0" d="M31,4c-0.6,0-1,0.4-1,1v2c0,0.6,0.4,1,1,1s1-0.4,1-1V5C32,4.4,31.6,4,31,4z"/>
	<path class="st0" d="M36,4c-0.6,0-1,0.4-1,1v2c0,0.6,0.4,1,1,1s1-0.4,1-1V5C37,4.4,36.6,4,36,4z"/>
	<path class="st0" d="M6,4C5.4,4,5,4.4,5,5v2c0,0.6,0.4,1,1,1s1-0.4,1-1V5C7,4.4,6.6,4,6,4z"/>
	<path class="st0" d="M16,4c-0.6,0-1,0.4-1,1v2c0,0.6,0.4,1,1,1s1-0.4,1-1V5C17,4.4,16.6,4,16,4z"/>
	<path class="st0" d="M11,4c-0.6,0-1,0.4-1,1v2c0,0.6,0.4,1,1,1s1-0.4,1-1V5C12,4.4,11.6,4,11,4z"/>
	<path class="st0" d="M51,8c0.6,0,1-0.4,1-1V5c0-0.6-0.4-1-1-1s-1,0.4-1,1v2C50,7.6,50.4,8,51,8z"/>
	<path class="st0" d="M53,0H3C1.3,0,0,1.3,0,3v42c0,1.7,1.3,3,3,3h50c1.7,0,3-1.3,3-3V3C56,1.3,54.7,0,53,0z M54,45c0,0.6-0.4,1-1,1
		H3c-0.6,0-1-0.4-1-1V12h41c0.6,0,1-0.4,1-1s-0.4-1-1-1H2V3c0-0.6,0.4-1,1-1h50c0.6,0,1,0.4,1,1V45z"/>
	<path class="st0" d="M41,4c-0.6,0-1,0.4-1,1v2c0,0.6,0.4,1,1,1s1-0.4,1-1V5C42,4.4,41.6,4,41,4z"/>
	<path class="st0" d="M46,8c0.6,0,1-0.4,1-1V5c0-0.6-0.4-1-1-1s-1,0.4-1,1v2C45,7.6,45.4,8,46,8z"/>
	<path class="st0" d="M47,42h-1v-7c0-0.6-0.4-1-1-1h-6c-0.6,0-1,0.4-1,1v7h-2V29c0-0.6-0.4-1-1-1h-6c-0.6,0-1,0.4-1,1v13h-2v-5
		c0-0.6-0.4-1-1-1h-6c-0.6,0-1,0.4-1,1v5h-2v-9c0-0.6-0.4-1-1-1H9c-0.6,0-1,0.4-1,1v9H7c-0.6,0-1,0.4-1,1s0.4,1,1,1h40
		c0.6,0,1-0.4,1-1S47.6,42,47,42z M14,42h-4v-8h4V42z M24,42h-4v-4h4V42z M34,42h-4V30h4V42z M44,42h-4v-6h4V42z"/>
	<path class="st0" d="M51,15c-0.3,0-0.5,0.1-0.7,0.3l-7,7c-1-0.5-2.3-0.4-3.2,0.4l-5.2-3.1c0.3-1.6-0.7-3.2-2.3-3.5
		s-3.2,0.7-3.5,2.3c0,0.2-0.1,0.4-0.1,0.6c0,0.4,0.1,0.8,0.2,1.1l-5.8,5.2c-1.2-0.7-2.8-0.4-3.7,0.7L15,24.1c0,0,0-0.1,0-0.1
		c0-1.7-1.3-3-3-3s-3,1.3-3,3c0,0.3,0,0.6,0.1,0.8l-4.7,3.4c-0.5,0.3-0.6,0.9-0.3,1.4s0.9,0.6,1.4,0.3c0,0,0.1-0.1,0.1-0.1l4.7-3.4
		c1.2,0.9,3,0.7,4-0.5l4.8,1.9c0,0,0,0.1,0,0.1c0,1.7,1.3,3,3,3c1.7,0,3-1.3,3-3c0-0.4-0.1-0.8-0.2-1.1l5.8-5.2
		c1.1,0.6,2.4,0.5,3.3-0.3l5.2,3.1c-0.3,1.6,0.7,3.2,2.3,3.5s3.2-0.7,3.5-2.3c0-0.2,0.1-0.4,0.1-0.6c0-0.4-0.1-0.9-0.3-1.3l7-7
		c0.4-0.4,0.4-1,0-1.4C51.5,15.1,51.3,15,51,15z M12,25.2c-0.6,0-1.2-0.5-1.2-1.2c0-0.6,0.5-1.2,1.2-1.2c0.6,0,1.2,0.5,1.2,1.2
		S12.6,25.2,12,25.2z M22,29.2c-0.6,0-1.2-0.5-1.2-1.2c0-0.6,0.5-1.2,1.2-1.2c0.6,0,1.2,0.5,1.2,1.2S22.6,29.2,22,29.2z M32,20.2
		c-0.6,0-1.2-0.5-1.2-1.2c0-0.6,0.5-1.2,1.2-1.2c0.6,0,1.2,0.5,1.2,1.2S32.6,20.2,32,20.2z M42,26.2c-0.7,0-1.2-0.5-1.2-1.2
		c0-0.7,0.5-1.2,1.2-1.2c0.7,0,1.2,0.5,1.2,1.2S42.7,26.2,42,26.2z"/>
	<path class="st0" d="M51,10h-4c-0.6,0-1,0.4-1,1s0.4,1,1,1h4c0.6,0,1-0.4,1-1S51.6,10,51,10z"/>
</g>
</svg>
