<?xml version="1.0" encoding="utf-8"?>
<!-- Generator: Adobe Illustrator 24.0.3, SVG Export Plug-In . SVG Version: 6.00 Build 0)  -->
<svg version="1.1" id="Слой_1" xmlns="http://www.w3.org/2000/svg" xmlns:xlink="http://www.w3.org/1999/xlink" x="0px" y="0px"
	 viewBox="0 0 56 48" style="enable-background:new 0 0 56 48;" xml:space="preserve">
<style type="text/css">
	.st0{fill:#4EAF4E;}
</style>
<g>
	<path class="st0" d="M21,4c-0.6,0-1,0.4-1,1v2c0,0.6,0.4,1,1,1s1-0.4,1-1V5C22,4.4,21.6,4,21,4z"/>
	<path class="st0" d="M26,4c-0.6,0-1,0.4-1,1v2c0,0.6,0.4,1,1,1s1-0.4,1-1V5C27,4.4,26.6,4,26,4z"/>
	<path class="st0" d="M31,4c-0.6,0-1,0.4-1,1v2c0,0.6,0.4,1,1,1s1-0.4,1-1V5C32,4.4,31.6,4,31,4z"/>
	<path class="st0" d="M11,4c-0.6,0-1,0.4-1,1v2c0,0.6,0.4,1,1,1s1-0.4,1-1V5C12,4.4,11.6,4,11,4z"/>
	<path class="st0" d="M6,4C5.4,4,5,4.4,5,5v2c0,0.6,0.4,1,1,1s1-0.4,1-1V5C7,4.4,6.6,4,6,4z"/>
	<path class="st0" d="M16,4c-0.6,0-1,0.4-1,1v2c0,0.6,0.4,1,1,1s1-0.4,1-1V5C17,4.4,16.6,4,16,4z"/>
	<path class="st0" d="M36,4c-0.6,0-1,0.4-1,1v2c0,0.6,0.4,1,1,1s1-0.4,1-1V5C37,4.4,36.6,4,36,4z"/>
	<path class="st0" d="M51,10h-4c-0.6,0-1,0.4-1,1s0.4,1,1,1h4c0.6,0,1-0.4,1-1S51.6,10,51,10z"/>
	<path class="st0" d="M51,4c-0.6,0-1,0.4-1,1v2c0,0.6,0.4,1,1,1s1-0.4,1-1V5C52,4.4,51.6,4,51,4z"/>
	<path class="st0" d="M53,0H3C1.3,0,0,1.3,0,3v42c0,1.7,1.3,3,3,3h50c1.7,0,3-1.3,3-3V3C56,1.3,54.7,0,53,0z M54,45c0,0.6-0.4,1-1,1
		H3c-0.6,0-1-0.4-1-1V12h41c0.6,0,1-0.4,1-1s-0.4-1-1-1H2V3c0-0.6,0.4-1,1-1h50c0.6,0,1,0.4,1,1V45z"/>
	<path class="st0" d="M49,42h-1V17c0-0.6-0.4-1-1-1h-6c-0.6,0-1,0.4-1,1v5h-5c-0.6,0-1,0.4-1,1v5h-5c-0.6,0-1,0.4-1,1v5h-5
		c-0.6,0-1,0.4-1,1v4h-5c-0.6,0-1,0.4-1,1v2H9c-0.6,0-1,0.4-1,1s0.4,1,1,1h40c0.6,0,1-0.4,1-1S49.6,42,49,42z M22,42h-4v-1h4V42z
		 M28,42h-4v-6h4V42z M34,42h-4V30h4V42z M40,42h-4V24h4V42z M46,42h-4V18h4V42z"/>
	<path class="st0" d="M8.7,38.7l1.3-1.3c0.4-0.4,0.4-1,0-1.4c-0.2-0.2-0.4-0.3-0.7-0.3l0,0c-0.3,0-0.5,0.1-0.7,0.3l-1.3,1.3
		c-0.4,0.4-0.4,1,0,1.4C7.7,39.1,8.3,39.1,8.7,38.7C8.7,38.7,8.7,38.7,8.7,38.7z"/>
	<path class="st0" d="M46,8c0.6,0,1-0.4,1-1V5c0-0.6-0.4-1-1-1s-1,0.4-1,1v2C45,7.6,45.4,8,46,8z"/>
	<path class="st0" d="M12.7,34.7C12.7,34.7,12.7,34.7,12.7,34.7L28,19.4v4.1c0,0.6,0.4,1,1,1s1-0.4,1-1V17c0-0.1,0-0.3-0.1-0.4
		c-0.1-0.2-0.3-0.4-0.5-0.5C29.3,16,29.1,16,29,16h-6.5c-0.6,0-1,0.4-1,1s0.4,1,1,1h4.1L11.3,33.3c-0.4,0.4-0.4,1,0,1.4
		C11.7,35.1,12.3,35.1,12.7,34.7z"/>
	<path class="st0" d="M41,4c-0.6,0-1,0.4-1,1v2c0,0.6,0.4,1,1,1s1-0.4,1-1V5C42,4.4,41.6,4,41,4z"/>
</g>
</svg>
