<svg xmlns="http://www.w3.org/2000/svg" width="17.809" height="17.809" viewBox="0 0 17.809 17.809"><path d="M5.619,4A1.619,1.619,0,0,0,4,5.619V8.857a1.619,1.619,0,0,0,1.619,1.619h.81v4.857H5.78A1.792,1.792,0,0,0,4,17.113v2.915a1.792,1.792,0,0,0,1.78,1.78H8.7a1.792,1.792,0,0,0,1.78-1.78v-.648h4.857v.81a1.619,1.619,0,0,0,1.619,1.619H20.19a1.619,1.619,0,0,0,1.619-1.619V16.952a1.619,1.619,0,0,0-1.619-1.619h-.81V10.476h.81a1.619,1.619,0,0,0,1.619-1.619V5.619A1.619,1.619,0,0,0,20.19,4H16.952a1.619,1.619,0,0,0-1.619,1.619v.81H10.476v-.81A1.619,1.619,0,0,0,8.857,4Zm4.857,4.048h4.857v.81a1.619,1.619,0,0,0,1.619,1.619h.81v4.857h-.81a1.619,1.619,0,0,0-1.619,1.619v.81H10.476v-.648a1.792,1.792,0,0,0-1.78-1.78H8.048V10.476h.81a1.619,1.619,0,0,0,1.619-1.619Zm-4.7,8.9H7.1a.81.81,0,0,0,.264,0H8.7a.15.15,0,0,1,.161.161v1.322a.81.81,0,0,0,0,.264v1.33a.15.15,0,0,1-.161.161H5.78a.15.15,0,0,1-.161-.161V17.113A.15.15,0,0,1,5.78,16.952Z" transform="translate(-4 -4)" fill="#202a3b"/></svg>