<?xml version="1.0" encoding="utf-8"?>
<!-- Generator: Adobe Illustrator 24.0.3, SVG Export Plug-In . SVG Version: 6.00 Build 0)  -->
<svg version="1.1" id="Слой_1" xmlns="http://www.w3.org/2000/svg" xmlns:xlink="http://www.w3.org/1999/xlink" x="0px" y="0px"
	 viewBox="0 0 56 48" style="enable-background:new 0 0 56 48;" xml:space="preserve">
<style type="text/css">
	.st0{fill:#4EAF4E;}
</style>
<g>
	<path class="st0" d="M41,44c0.6,0,1-0.4,1-1v-2c0-0.6-0.4-1-1-1s-1,0.4-1,1v2C40,43.6,40.4,44,41,44z"/>
	<path class="st0" d="M36,44c0.6,0,1-0.4,1-1v-2c0-0.6-0.4-1-1-1s-1,0.4-1,1v2C35,43.6,35.4,44,36,44z"/>
	<path class="st0" d="M31,44c0.6,0,1-0.4,1-1v-2c0-0.6-0.4-1-1-1s-1,0.4-1,1v2C30,43.6,30.4,44,31,44z"/>
	<path class="st0" d="M46,44c0.6,0,1-0.4,1-1v-2c0-0.6-0.4-1-1-1s-1,0.4-1,1v2C45,43.6,45.4,44,46,44z"/>
	<path class="st0" d="M26,44c0.6,0,1-0.4,1-1v-2c0-0.6-0.4-1-1-1s-1,0.4-1,1v2C25,43.6,25.4,44,26,44z"/>
	<path class="st0" d="M51,44c0.6,0,1-0.4,1-1v-2c0-0.6-0.4-1-1-1s-1,0.4-1,1v2C50,43.6,50.4,44,51,44z"/>
	<path class="st0" d="M44.7,8.3C44.5,8.1,44.3,8,44,8c-0.6,0-1,0.4-1,1c0,0.3,0.1,0.5,0.3,0.7l2.3,2.3h-7.8
		c-0.5-1.6-2.3-2.4-3.8-1.8c-0.9,0.3-1.5,1-1.8,1.8h-6.4c-0.5-1.6-2.3-2.4-3.8-1.8c-0.9,0.3-1.5,1-1.8,1.8h-6.4
		c-0.6-1.6-2.3-2.4-3.8-1.8S7.6,12.4,8.2,14s2.3,2.4,3.8,1.8c0.9-0.3,1.5-1,1.8-1.8h6.4c0.5,1.6,2.3,2.4,3.8,1.8
		c0.9-0.3,1.5-1,1.8-1.8h6.4c0.5,1.6,2.3,2.4,3.8,1.8c0.9-0.3,1.5-1,1.8-1.8h7.8l-2.3,2.3c-0.4,0.4-0.4,1,0,1.4c0.4,0.4,1,0.4,1.4,0
		c0,0,0,0,0,0l4-4c0.4-0.4,0.4-1,0-1.4L44.7,8.3z M11,14.1c-0.6,0-1.1-0.5-1.1-1.1c0-0.6,0.5-1.1,1.1-1.1s1.1,0.5,1.1,1.1
		C12.1,13.6,11.6,14.1,11,14.1z M23,14.1c-0.6,0-1.1-0.5-1.1-1.1c0-0.6,0.5-1.1,1.1-1.1c0.6,0,1.1,0.5,1.1,1.1
		C24.1,13.6,23.6,14.1,23,14.1z M35,14.1c-0.6,0-1.1-0.5-1.1-1.1s0.5-1.1,1.1-1.1c0.6,0,1.1,0.5,1.1,1.1
		C36.1,13.6,35.6,14.1,35,14.1z"/>
	<path class="st0" d="M6,44c0.6,0,1-0.4,1-1v-2c0-0.6-0.4-1-1-1s-1,0.4-1,1v2C5,43.6,5.4,44,6,44z"/>
	<path class="st0" d="M53,0H3C1.3,0,0,1.3,0,3v42c0,1.7,1.3,3,3,3h50c1.7,0,3-1.3,3-3V3C56,1.3,54.7,0,53,0z M54,45c0,0.6-0.4,1-1,1
		H3c-0.6,0-1-0.4-1-1v-7h52V45z M10,36V24h4v12H10z M16,36V26h4v10H16z M22,36V24h4v12H22z M28,36v-8h4v8H28z M34,36V26h4v10H34z
		 M40,36V24h4v12H40z M54,36h-8V23c0-0.6-0.4-1-1-1h-6c-0.6,0-1,0.4-1,1v1h-5c-0.6,0-1,0.4-1,1v1h-4v-3c0-0.6-0.4-1-1-1h-6
		c-0.6,0-1,0.4-1,1v1h-4v-1c0-0.6-0.4-1-1-1H9c-0.6,0-1,0.4-1,1v13H2V3c0-0.6,0.4-1,1-1h50c0.6,0,1,0.4,1,1V36z"/>
	<path class="st0" d="M21,44c0.6,0,1-0.4,1-1v-2c0-0.6-0.4-1-1-1s-1,0.4-1,1v2C20,43.6,20.4,44,21,44z"/>
	<path class="st0" d="M16,44c0.6,0,1-0.4,1-1v-2c0-0.6-0.4-1-1-1s-1,0.4-1,1v2C15,43.6,15.4,44,16,44z"/>
	<path class="st0" d="M11,44c0.6,0,1-0.4,1-1v-2c0-0.6-0.4-1-1-1s-1,0.4-1,1v2C10,43.6,10.4,44,11,44z"/>
</g>
</svg>
