<?xml version="1.0" encoding="utf-8"?>
<!-- Generator: Adobe Illustrator 24.0.3, SVG Export Plug-In . SVG Version: 6.00 Build 0)  -->
<svg version="1.1" id="Слой_1" xmlns="http://www.w3.org/2000/svg" xmlns:xlink="http://www.w3.org/1999/xlink" x="0px" y="0px"
	 viewBox="0 0 46.9 51.4" style="enable-background:new 0 0 46.9 51.4;" xml:space="preserve">
<style type="text/css">
	.st0{fill:#4EAF4E;}
</style>
<g>
	<path class="st0" d="M39.1,8.9c0-2.5-2-4.5-4.5-4.5v0c-2.5,0-4.5,2-4.5,4.5c0,2.5,2,4.5,4.5,4.5C37.1,13.4,39.1,11.4,39.1,8.9z
		 M32.4,8.9c0-1.2,1-2.2,2.2-2.2c0,0,0,0,0,0v0c1.2,0,2.2,1,2.2,2.2c0,1.2-1,2.2-2.2,2.2C33.4,11.2,32.4,10.2,32.4,8.9z"/>
	<path class="st0" d="M42.3,14c0.7-1.5,1.2-3,1.3-4.7c0.1-5.1-3.9-9.2-8.9-9.4c-3.3,0-6.2,1.9-7.8,4.8c-1.1-0.2-2.1-0.3-3.2-0.3v0
		h-0.2C10.4,4.4-0.3,14.9-0.4,27.9S10,51.7,23.1,51.8s23.7-10.4,23.8-23.5C47,23.2,45.3,18.2,42.3,14z M17.2,7.6L17.2,7.6
		c-2,2.3-3.4,5.1-4.3,8H6.2C8.9,11.8,12.8,9,17.2,7.6z M14.7,17.9h7.7v8.9h-8.9C13.5,23.8,13.9,20.8,14.7,17.9z M4.8,17.9h7.6
		c-0.7,2.9-1.1,5.9-1.1,8.9H2.3C2.4,23.7,3.3,20.6,4.8,17.9z M2.3,29.1h8.9c0.1,3,0.4,6,1.1,8.9H4.8C3.3,35.2,2.4,32.2,2.3,29.1z
		 M6.2,40.2h6.8c0.8,2.9,2.3,5.7,4.3,8C12.8,46.9,8.9,44,6.2,40.2z M22.4,49c-2.9-0.7-5.4-4-7-8.8h7V49z M22.4,38h-7.7
		c-0.7-2.9-1.1-5.9-1.2-8.9h8.9V38z M22.4,6.9v8.8h-7C17,10.9,19.5,7.6,22.4,6.9L22.4,6.9z M44.7,26.8h-8.9c0-0.5,0-1-0.1-1.5
		c2-2.9,3.8-5.9,5.5-9v0C43.3,19.4,44.5,23.1,44.7,26.8z M34.6,2.2c3.8,0.1,6.8,3.3,6.7,7.2c0,2.7-3.6,8.9-6.7,13.5
		c-3.1-4.6-6.7-10.8-6.7-13.5C27.8,5.6,30.8,2.4,34.6,2.2z M24.6,6.8c0.5,0,1,0.1,1.5,0.1c-0.2,0.8-0.3,1.7-0.3,2.5
		c0,1.6,0.9,3.9,2,6.3h-3.2V6.8z M24.6,17.9h4.4c1.6,2.9,3.3,5.5,4.5,7.2c0,0.6,0.1,1.2,0.1,1.8h-8.9V17.9z M33.5,29.1
		c-0.1,3-0.5,6-1.2,8.9h-7.7l0-8.9H33.5z M24.6,49v-8.8h7C30,45,27.4,48.3,24.6,49z M29.7,48.2c2-2.3,3.4-5.1,4.3-8h6.8
		C38.1,44,34.2,46.9,29.7,48.2z M42.2,38h-7.6c0.7-2.9,1.1-5.9,1.1-8.9h8.9C44.5,32.2,43.7,35.2,42.2,38z"/>
</g>
</svg>
