<svg height="11.753" viewBox="0 0 14.437 11.753" width="14.437" xmlns="http://www.w3.org/2000/svg"><path d="m16.437 5.257a6.129 6.129 0 0 1 -1.7.462 2.981 2.981 0 0 0 1.303-1.638 5.927 5.927 0 0 1 -1.884.722 2.96 2.96 0 0 0 -5.056 2.697 8.4 8.4 0 0 1 -6.1-3.094 3 3 0 0 0 -.4 1.494 2.952 2.952 0 0 0 1.32 2.461 2.924 2.924 0 0 1 -1.343-.368v.036a2.96 2.96 0 0 0 2.383 2.888 2.837 2.837 0 0 1 -.794.123 3.537 3.537 0 0 1 -.556-.051 2.967 2.967 0 0 0 2.765 2.05 5.934 5.934 0 0 1 -3.653 1.27 5.724 5.724 0 0 1 -.722-.043 8.352 8.352 0 0 0 4.541 1.334 8.366 8.366 0 0 0 8.453-8.279q0-.076 0-.152v-.381a6.085 6.085 0 0 0 1.444-1.53z" fill="#fff" transform="translate(-2 -3.849)"/></svg>